<?xml version="1.0" encoding="UTF-8" standalone="no"?>
<!DOCTYPE svg PUBLIC "-//W3C//DTD SVG 1.1//EN"
 "http://www.w3.org/Graphics/SVG/1.1/DTD/svg11.dtd">
<!-- Generated by graphviz version 2.38.0 (20140413.2041)
 -->
<!-- Title: %3 Pages: 1 -->
<svg width="1825pt" height="836pt"
 viewBox="0.00 0.00 1825.39 836.00" xmlns="http://www.w3.org/2000/svg" xmlns:xlink="http://www.w3.org/1999/xlink">
<g id="graph0" class="graph" transform="scale(1 1) rotate(0) translate(4 832)">
<title>%3</title>
<polygon fill="white" stroke="none" points="-4,4 -4,-832 1821.39,-832 1821.39,4 -4,4"/>
<!-- n0 -->
<g id="node1" class="node"><title>n0</title>
<ellipse fill="none" stroke="black" cx="433.243" cy="-810" rx="93.6835" ry="18"/>
<text text-anchor="middle" x="433.243" y="-806.3" font-family="Times New Roman,serif" font-size="14.00">root (CompilationUnit)</text>
</g>
<!-- n1 -->
<g id="node2" class="node"><title>n1</title>
<ellipse fill="none" stroke="black" cx="312.243" cy="-738" rx="161.372" ry="18"/>
<text text-anchor="middle" x="312.243" y="-734.3" font-family="Times New Roman,serif" font-size="14.00">packageDeclaration (PackageDeclaration)</text>
</g>
<!-- n0&#45;&gt;n1 -->
<g id="edge1" class="edge"><title>n0&#45;&gt;n1</title>
<path fill="none" stroke="black" d="M405.179,-792.765C388.889,-783.341 368.146,-771.341 350.391,-761.069"/>
<polygon fill="black" stroke="black" points="351.826,-757.856 341.418,-755.878 348.321,-763.915 351.826,-757.856"/>
</g>
<!-- n6 -->
<g id="node7" class="node"><title>n6</title>
<ellipse fill="none" stroke="black" cx="554.243" cy="-738" rx="30.5947" ry="18"/>
<text text-anchor="middle" x="554.243" y="-734.3" font-family="Times New Roman,serif" font-size="14.00">types</text>
</g>
<!-- n0&#45;&gt;n6 -->
<g id="edge6" class="edge"><title>n0&#45;&gt;n6</title>
<path fill="none" stroke="black" d="M461.307,-792.765C480.231,-781.817 505.167,-767.391 524.445,-756.239"/>
<polygon fill="black" stroke="black" points="526.228,-759.25 533.132,-751.213 522.723,-753.191 526.228,-759.25"/>
</g>
<!-- n2 -->
<g id="node3" class="node"><title>n2</title>
<ellipse fill="none" stroke="black" cx="249.243" cy="-666" rx="59.2899" ry="18"/>
<text text-anchor="middle" x="249.243" y="-662.3" font-family="Times New Roman,serif" font-size="14.00">name (Name)</text>
</g>
<!-- n1&#45;&gt;n2 -->
<g id="edge2" class="edge"><title>n1&#45;&gt;n2</title>
<path fill="none" stroke="black" d="M296.992,-720.055C289.254,-711.457 279.714,-700.857 271.2,-691.397"/>
<polygon fill="black" stroke="black" points="273.644,-688.881 264.353,-683.789 268.441,-693.563 273.644,-688.881"/>
</g>
<!-- n3 -->
<g id="node4" class="node"><title>n3</title>
<ellipse fill="none" stroke="black" cx="81.2428" cy="-594" rx="81.4863" ry="18"/>
<text text-anchor="middle" x="81.2428" y="-590.3" font-family="Times New Roman,serif" font-size="14.00">identifier=&#39;example&#39;</text>
</g>
<!-- n2&#45;&gt;n3 -->
<g id="edge3" class="edge"><title>n2&#45;&gt;n3</title>
<path fill="none" stroke="black" d="M215.649,-651.003C190.295,-640.438 155.218,-625.823 127.256,-614.172"/>
<polygon fill="black" stroke="black" points="128.267,-610.802 117.69,-610.186 125.574,-617.263 128.267,-610.802"/>
</g>
<!-- n4 -->
<g id="node5" class="node"><title>n4</title>
<ellipse fill="none" stroke="black" cx="249.243" cy="-594" rx="68.7879" ry="18"/>
<text text-anchor="middle" x="249.243" y="-590.3" font-family="Times New Roman,serif" font-size="14.00">qualifier (Name)</text>
</g>
<!-- n2&#45;&gt;n4 -->
<g id="edge4" class="edge"><title>n2&#45;&gt;n4</title>
<path fill="none" stroke="black" d="M249.243,-647.697C249.243,-639.983 249.243,-630.712 249.243,-622.112"/>
<polygon fill="black" stroke="black" points="252.743,-622.104 249.243,-612.104 245.743,-622.104 252.743,-622.104"/>
</g>
<!-- n5 -->
<g id="node6" class="node"><title>n5</title>
<ellipse fill="none" stroke="black" cx="249.243" cy="-522" rx="63.8893" ry="18"/>
<text text-anchor="middle" x="249.243" y="-518.3" font-family="Times New Roman,serif" font-size="14.00">identifier=&#39;org&#39;</text>
</g>
<!-- n4&#45;&gt;n5 -->
<g id="edge5" class="edge"><title>n4&#45;&gt;n5</title>
<path fill="none" stroke="black" d="M249.243,-575.697C249.243,-567.983 249.243,-558.712 249.243,-550.112"/>
<polygon fill="black" stroke="black" points="252.743,-550.104 249.243,-540.104 245.743,-550.104 252.743,-550.104"/>
</g>
<!-- n7 -->
<g id="node8" class="node"><title>n7</title>
<ellipse fill="none" stroke="black" cx="586.243" cy="-666" rx="137.276" ry="18"/>
<text text-anchor="middle" x="586.243" y="-662.3" font-family="Times New Roman,serif" font-size="14.00">type (ClassOrInterfaceDeclaration)</text>
</g>
<!-- n6&#45;&gt;n7 -->
<g id="edge7" class="edge"><title>n6&#45;&gt;n7</title>
<path fill="none" stroke="black" d="M561.826,-720.411C565.464,-712.454 569.913,-702.722 574.012,-693.756"/>
<polygon fill="black" stroke="black" points="577.293,-694.997 578.267,-684.447 570.926,-692.086 577.293,-694.997"/>
</g>
<!-- n8 -->
<g id="node9" class="node"><title>n8</title>
<ellipse fill="none" stroke="black" cx="410.243" cy="-594" rx="74.187" ry="18"/>
<text text-anchor="middle" x="410.243" y="-590.3" font-family="Times New Roman,serif" font-size="14.00">isInterface=&#39;false&#39;</text>
</g>
<!-- n7&#45;&gt;n8 -->
<g id="edge8" class="edge"><title>n7&#45;&gt;n8</title>
<path fill="none" stroke="black" d="M545.422,-648.765C518.898,-638.215 484.254,-624.436 456.679,-613.469"/>
<polygon fill="black" stroke="black" points="457.831,-610.161 447.245,-609.717 455.244,-616.665 457.831,-610.161"/>
</g>
<!-- n9 -->
<g id="node10" class="node"><title>n9</title>
<ellipse fill="none" stroke="black" cx="586.243" cy="-594" rx="83.6854" ry="18"/>
<text text-anchor="middle" x="586.243" y="-590.3" font-family="Times New Roman,serif" font-size="14.00">name (SimpleName)</text>
</g>
<!-- n7&#45;&gt;n9 -->
<g id="edge9" class="edge"><title>n7&#45;&gt;n9</title>
<path fill="none" stroke="black" d="M586.243,-647.697C586.243,-639.983 586.243,-630.712 586.243,-622.112"/>
<polygon fill="black" stroke="black" points="589.743,-622.104 586.243,-612.104 582.743,-622.104 589.743,-622.104"/>
</g>
<!-- n11 -->
<g id="node12" class="node"><title>n11</title>
<ellipse fill="none" stroke="black" cx="732.243" cy="-594" rx="44.393" ry="18"/>
<text text-anchor="middle" x="732.243" y="-590.3" font-family="Times New Roman,serif" font-size="14.00">members</text>
</g>
<!-- n7&#45;&gt;n11 -->
<g id="edge11" class="edge"><title>n7&#45;&gt;n11</title>
<path fill="none" stroke="black" d="M620.843,-648.411C643.373,-637.609 672.726,-623.535 695.645,-612.547"/>
<polygon fill="black" stroke="black" points="697.213,-615.677 704.717,-608.197 694.187,-609.365 697.213,-615.677"/>
</g>
<!-- n55 -->
<g id="node56" class="node"><title>n55</title>
<ellipse fill="none" stroke="black" cx="1005.24" cy="-594" rx="44.6926" ry="18"/>
<text text-anchor="middle" x="1005.24" y="-590.3" font-family="Times New Roman,serif" font-size="14.00">modifiers</text>
</g>
<!-- n7&#45;&gt;n55 -->
<g id="edge55" class="edge"><title>n7&#45;&gt;n55</title>
<path fill="none" stroke="black" d="M667.527,-651.42C752.474,-637.229 883.118,-615.403 954.456,-603.485"/>
<polygon fill="black" stroke="black" points="955.252,-606.9 964.539,-601.8 954.099,-599.996 955.252,-606.9"/>
</g>
<!-- n10 -->
<g id="node11" class="node"><title>n10</title>
<ellipse fill="none" stroke="black" cx="468.243" cy="-522" rx="67.6881" ry="18"/>
<text text-anchor="middle" x="468.243" y="-518.3" font-family="Times New Roman,serif" font-size="14.00">identifier=&#39;Test&#39;</text>
</g>
<!-- n9&#45;&gt;n10 -->
<g id="edge10" class="edge"><title>n9&#45;&gt;n10</title>
<path fill="none" stroke="black" d="M559.171,-576.941C542.716,-567.179 521.518,-554.604 503.73,-544.052"/>
<polygon fill="black" stroke="black" points="505.168,-540.835 494.782,-538.743 501.597,-546.856 505.168,-540.835"/>
</g>
<!-- n12 -->
<g id="node13" class="node"><title>n12</title>
<ellipse fill="none" stroke="black" cx="661.243" cy="-522" rx="107.482" ry="18"/>
<text text-anchor="middle" x="661.243" y="-518.3" font-family="Times New Roman,serif" font-size="14.00">member (FieldDeclaration)</text>
</g>
<!-- n11&#45;&gt;n12 -->
<g id="edge12" class="edge"><title>n11&#45;&gt;n12</title>
<path fill="none" stroke="black" d="M716.132,-577.116C707.133,-568.244 695.737,-557.009 685.664,-547.077"/>
<polygon fill="black" stroke="black" points="687.858,-544.326 678.28,-539.797 682.944,-549.31 687.858,-544.326"/>
</g>
<!-- n22 -->
<g id="node23" class="node"><title>n22</title>
<ellipse fill="none" stroke="black" cx="971.243" cy="-522" rx="133.477" ry="18"/>
<text text-anchor="middle" x="971.243" y="-518.3" font-family="Times New Roman,serif" font-size="14.00">member (ConstructorDeclaration)</text>
</g>
<!-- n11&#45;&gt;n22 -->
<g id="edge22" class="edge"><title>n11&#45;&gt;n22</title>
<path fill="none" stroke="black" d="M766.995,-582.821C803.904,-572.011 863.033,-554.693 908.195,-541.466"/>
<polygon fill="black" stroke="black" points="909.284,-544.794 917.897,-538.624 907.316,-538.076 909.284,-544.794"/>
</g>
<!-- n13 -->
<g id="node14" class="node"><title>n13</title>
<ellipse fill="none" stroke="black" cx="322.243" cy="-450" rx="44.6926" ry="18"/>
<text text-anchor="middle" x="322.243" y="-446.3" font-family="Times New Roman,serif" font-size="14.00">modifiers</text>
</g>
<!-- n12&#45;&gt;n13 -->
<g id="edge13" class="edge"><title>n12&#45;&gt;n13</title>
<path fill="none" stroke="black" d="M596.281,-507.586C530.491,-494.001 430.228,-473.298 370.963,-461.06"/>
<polygon fill="black" stroke="black" points="371.604,-457.619 361.103,-459.024 370.189,-464.474 371.604,-457.619"/>
</g>
<!-- n16 -->
<g id="node17" class="node"><title>n16</title>
<ellipse fill="none" stroke="black" cx="609.243" cy="-450" rx="42.4939" ry="18"/>
<text text-anchor="middle" x="609.243" y="-446.3" font-family="Times New Roman,serif" font-size="14.00">variables</text>
</g>
<!-- n12&#45;&gt;n16 -->
<g id="edge16" class="edge"><title>n12&#45;&gt;n16</title>
<path fill="none" stroke="black" d="M648.655,-504.055C642.303,-495.505 634.481,-484.975 627.484,-475.556"/>
<polygon fill="black" stroke="black" points="630.129,-473.247 621.357,-467.307 624.51,-477.422 630.129,-473.247"/>
</g>
<!-- n14 -->
<g id="node15" class="node"><title>n14</title>
<ellipse fill="none" stroke="black" cx="268.243" cy="-378" rx="80.6858" ry="18"/>
<text text-anchor="middle" x="268.243" y="-374.3" font-family="Times New Roman,serif" font-size="14.00">modifier (Modifier)</text>
</g>
<!-- n13&#45;&gt;n14 -->
<g id="edge14" class="edge"><title>n13&#45;&gt;n14</title>
<path fill="none" stroke="black" d="M309.446,-432.411C302.884,-423.906 294.759,-413.372 287.462,-403.914"/>
<polygon fill="black" stroke="black" points="290.203,-401.736 281.323,-395.956 284.66,-406.012 290.203,-401.736"/>
</g>
<!-- n15 -->
<g id="node16" class="node"><title>n15</title>
<ellipse fill="none" stroke="black" cx="185.243" cy="-306" rx="90.1842" ry="18"/>
<text text-anchor="middle" x="185.243" y="-302.3" font-family="Times New Roman,serif" font-size="14.00">keyword=&#39;PRIVATE&#39;</text>
</g>
<!-- n14&#45;&gt;n15 -->
<g id="edge15" class="edge"><title>n14&#45;&gt;n15</title>
<path fill="none" stroke="black" d="M248.573,-360.411C237.901,-351.41 224.536,-340.139 212.838,-330.273"/>
<polygon fill="black" stroke="black" points="214.96,-327.484 205.059,-323.713 210.447,-332.835 214.96,-327.484"/>
</g>
<!-- n17 -->
<g id="node18" class="node"><title>n17</title>
<ellipse fill="none" stroke="black" cx="564.243" cy="-378" rx="114.28" ry="18"/>
<text text-anchor="middle" x="564.243" y="-374.3" font-family="Times New Roman,serif" font-size="14.00">variable (VariableDeclarator)</text>
</g>
<!-- n16&#45;&gt;n17 -->
<g id="edge17" class="edge"><title>n16&#45;&gt;n17</title>
<path fill="none" stroke="black" d="M598.578,-432.411C593.221,-424.077 586.612,-413.797 580.628,-404.488"/>
<polygon fill="black" stroke="black" points="583.495,-402.475 575.143,-395.956 577.607,-406.261 583.495,-402.475"/>
</g>
<!-- n18 -->
<g id="node19" class="node"><title>n18</title>
<ellipse fill="none" stroke="black" cx="377.243" cy="-306" rx="83.6854" ry="18"/>
<text text-anchor="middle" x="377.243" y="-302.3" font-family="Times New Roman,serif" font-size="14.00">name (SimpleName)</text>
</g>
<!-- n17&#45;&gt;n18 -->
<g id="edge18" class="edge"><title>n17&#45;&gt;n18</title>
<path fill="none" stroke="black" d="M521.81,-361.116C493.54,-350.534 456.285,-336.588 426.675,-325.504"/>
<polygon fill="black" stroke="black" points="427.543,-322.092 416.951,-321.864 425.089,-328.648 427.543,-322.092"/>
</g>
<!-- n20 -->
<g id="node21" class="node"><title>n20</title>
<ellipse fill="none" stroke="black" cx="564.243" cy="-306" rx="85.2851" ry="18"/>
<text text-anchor="middle" x="564.243" y="-302.3" font-family="Times New Roman,serif" font-size="14.00">type (PrimitiveType)</text>
</g>
<!-- n17&#45;&gt;n20 -->
<g id="edge20" class="edge"><title>n17&#45;&gt;n20</title>
<path fill="none" stroke="black" d="M564.243,-359.697C564.243,-351.983 564.243,-342.712 564.243,-334.112"/>
<polygon fill="black" stroke="black" points="567.743,-334.104 564.243,-324.104 560.743,-334.104 567.743,-334.104"/>
</g>
<!-- n19 -->
<g id="node20" class="node"><title>n19</title>
<ellipse fill="none" stroke="black" cx="377.243" cy="-234" rx="55.4913" ry="18"/>
<text text-anchor="middle" x="377.243" y="-230.3" font-family="Times New Roman,serif" font-size="14.00">identifier=&#39;a&#39;</text>
</g>
<!-- n18&#45;&gt;n19 -->
<g id="edge19" class="edge"><title>n18&#45;&gt;n19</title>
<path fill="none" stroke="black" d="M377.243,-287.697C377.243,-279.983 377.243,-270.712 377.243,-262.112"/>
<polygon fill="black" stroke="black" points="380.743,-262.104 377.243,-252.104 373.743,-262.104 380.743,-262.104"/>
</g>
<!-- n21 -->
<g id="node22" class="node"><title>n21</title>
<ellipse fill="none" stroke="black" cx="564.243" cy="-234" rx="50.8918" ry="18"/>
<text text-anchor="middle" x="564.243" y="-230.3" font-family="Times New Roman,serif" font-size="14.00">type=&#39;INT&#39;</text>
</g>
<!-- n20&#45;&gt;n21 -->
<g id="edge21" class="edge"><title>n20&#45;&gt;n21</title>
<path fill="none" stroke="black" d="M564.243,-287.697C564.243,-279.983 564.243,-270.712 564.243,-262.112"/>
<polygon fill="black" stroke="black" points="567.743,-262.104 564.243,-252.104 560.743,-262.104 567.743,-262.104"/>
</g>
<!-- n23 -->
<g id="node24" class="node"><title>n23</title>
<ellipse fill="none" stroke="black" cx="792.243" cy="-450" rx="76.8869" ry="18"/>
<text text-anchor="middle" x="792.243" y="-446.3" font-family="Times New Roman,serif" font-size="14.00">body (BlockStmt)</text>
</g>
<!-- n22&#45;&gt;n23 -->
<g id="edge23" class="edge"><title>n22&#45;&gt;n23</title>
<path fill="none" stroke="black" d="M929.727,-504.765C902.75,-494.215 867.516,-480.436 839.471,-469.469"/>
<polygon fill="black" stroke="black" points="840.464,-466.099 829.876,-465.717 837.915,-472.619 840.464,-466.099"/>
</g>
<!-- n43 -->
<g id="node44" class="node"><title>n43</title>
<ellipse fill="none" stroke="black" cx="971.243" cy="-450" rx="83.6854" ry="18"/>
<text text-anchor="middle" x="971.243" y="-446.3" font-family="Times New Roman,serif" font-size="14.00">name (SimpleName)</text>
</g>
<!-- n22&#45;&gt;n43 -->
<g id="edge43" class="edge"><title>n22&#45;&gt;n43</title>
<path fill="none" stroke="black" d="M971.243,-503.697C971.243,-495.983 971.243,-486.712 971.243,-478.112"/>
<polygon fill="black" stroke="black" points="974.743,-478.104 971.243,-468.104 967.743,-478.104 974.743,-478.104"/>
</g>
<!-- n45 -->
<g id="node46" class="node"><title>n45</title>
<ellipse fill="none" stroke="black" cx="1118.24" cy="-450" rx="44.6926" ry="18"/>
<text text-anchor="middle" x="1118.24" y="-446.3" font-family="Times New Roman,serif" font-size="14.00">modifiers</text>
</g>
<!-- n22&#45;&gt;n45 -->
<g id="edge45" class="edge"><title>n22&#45;&gt;n45</title>
<path fill="none" stroke="black" d="M1005.71,-504.588C1028.38,-493.791 1058.04,-479.669 1081.21,-468.633"/>
<polygon fill="black" stroke="black" points="1082.86,-471.724 1090.39,-464.264 1079.85,-465.404 1082.86,-471.724"/>
</g>
<!-- n48 -->
<g id="node49" class="node"><title>n48</title>
<ellipse fill="none" stroke="black" cx="1231.24" cy="-450" rx="50.0912" ry="18"/>
<text text-anchor="middle" x="1231.24" y="-446.3" font-family="Times New Roman,serif" font-size="14.00">parameters</text>
</g>
<!-- n22&#45;&gt;n48 -->
<g id="edge48" class="edge"><title>n22&#45;&gt;n48</title>
<path fill="none" stroke="black" d="M1030.26,-505.814C1070.37,-495.403 1124.58,-481.148 1172.24,-468 1176.01,-466.961 1179.9,-465.872 1183.82,-464.767"/>
<polygon fill="black" stroke="black" points="1184.85,-468.112 1193.51,-462.01 1182.93,-461.379 1184.85,-468.112"/>
</g>
<!-- n24 -->
<g id="node25" class="node"><title>n24</title>
<ellipse fill="none" stroke="black" cx="792.243" cy="-378" rx="48.9926" ry="18"/>
<text text-anchor="middle" x="792.243" y="-374.3" font-family="Times New Roman,serif" font-size="14.00">statements</text>
</g>
<!-- n23&#45;&gt;n24 -->
<g id="edge24" class="edge"><title>n23&#45;&gt;n24</title>
<path fill="none" stroke="black" d="M792.243,-431.697C792.243,-423.983 792.243,-414.712 792.243,-406.112"/>
<polygon fill="black" stroke="black" points="795.743,-406.104 792.243,-396.104 788.743,-406.104 795.743,-406.104"/>
</g>
<!-- n25 -->
<g id="node26" class="node"><title>n25</title>
<ellipse fill="none" stroke="black" cx="761.243" cy="-306" rx="93.6835" ry="18"/>
<text text-anchor="middle" x="761.243" y="-302.3" font-family="Times New Roman,serif" font-size="14.00">statement (AssertStmt)</text>
</g>
<!-- n24&#45;&gt;n25 -->
<g id="edge25" class="edge"><title>n24&#45;&gt;n25</title>
<path fill="none" stroke="black" d="M784.739,-360.055C781.212,-352.091 776.925,-342.411 772.983,-333.51"/>
<polygon fill="black" stroke="black" points="776.143,-332.002 768.893,-324.275 769.742,-334.836 776.143,-332.002"/>
</g>
<!-- n33 -->
<g id="node34" class="node"><title>n33</title>
<ellipse fill="none" stroke="black" cx="983.243" cy="-306" rx="110.48" ry="18"/>
<text text-anchor="middle" x="983.243" y="-302.3" font-family="Times New Roman,serif" font-size="14.00">statement (ExpressionStmt)</text>
</g>
<!-- n24&#45;&gt;n33 -->
<g id="edge33" class="edge"><title>n24&#45;&gt;n33</title>
<path fill="none" stroke="black" d="M825.512,-364.807C854.501,-354.183 897.04,-338.593 930.638,-326.279"/>
<polygon fill="black" stroke="black" points="932.119,-329.464 940.304,-322.737 929.711,-322.892 932.119,-329.464"/>
</g>
<!-- n26 -->
<g id="node27" class="node"><title>n26</title>
<ellipse fill="none" stroke="black" cx="738.243" cy="-234" rx="81.4863" ry="18"/>
<text text-anchor="middle" x="738.243" y="-230.3" font-family="Times New Roman,serif" font-size="14.00">check (BinaryExpr)</text>
</g>
<!-- n25&#45;&gt;n26 -->
<g id="edge26" class="edge"><title>n25&#45;&gt;n26</title>
<path fill="none" stroke="black" d="M755.557,-287.697C752.995,-279.898 749.91,-270.509 747.058,-261.829"/>
<polygon fill="black" stroke="black" points="750.309,-260.512 743.863,-252.104 743.659,-262.697 750.309,-260.512"/>
</g>
<!-- n27 -->
<g id="node28" class="node"><title>n27</title>
<ellipse fill="none" stroke="black" cx="447.243" cy="-162" rx="110.48" ry="18"/>
<text text-anchor="middle" x="447.243" y="-158.3" font-family="Times New Roman,serif" font-size="14.00">operator=&#39;NOT_EQUALS&#39;</text>
</g>
<!-- n26&#45;&gt;n27 -->
<g id="edge27" class="edge"><title>n26&#45;&gt;n27</title>
<path fill="none" stroke="black" d="M685.207,-220.242C637.773,-208.832 567.951,-192.036 516.195,-179.586"/>
<polygon fill="black" stroke="black" points="516.965,-176.172 506.424,-177.236 515.328,-182.978 516.965,-176.172"/>
</g>
<!-- n28 -->
<g id="node29" class="node"><title>n28</title>
<ellipse fill="none" stroke="black" cx="644.243" cy="-162" rx="68.7879" ry="18"/>
<text text-anchor="middle" x="644.243" y="-158.3" font-family="Times New Roman,serif" font-size="14.00">left (NameExpr)</text>
</g>
<!-- n26&#45;&gt;n28 -->
<g id="edge28" class="edge"><title>n26&#45;&gt;n28</title>
<path fill="none" stroke="black" d="M715.966,-216.411C703.467,-207.103 687.707,-195.367 674.146,-185.268"/>
<polygon fill="black" stroke="black" points="676.146,-182.394 666.035,-179.228 671.965,-188.008 676.146,-182.394"/>
</g>
<!-- n31 -->
<g id="node32" class="node"><title>n31</title>
<ellipse fill="none" stroke="black" cx="831.243" cy="-162" rx="100.182" ry="18"/>
<text text-anchor="middle" x="831.243" y="-158.3" font-family="Times New Roman,serif" font-size="14.00">right (IntegerLiteralExpr)</text>
</g>
<!-- n26&#45;&gt;n31 -->
<g id="edge31" class="edge"><title>n26&#45;&gt;n31</title>
<path fill="none" stroke="black" d="M760.282,-216.411C772.355,-207.324 787.504,-195.922 800.701,-185.989"/>
<polygon fill="black" stroke="black" points="803.154,-188.523 809.039,-179.713 798.944,-182.93 803.154,-188.523"/>
</g>
<!-- n29 -->
<g id="node30" class="node"><title>n29</title>
<ellipse fill="none" stroke="black" cx="644.243" cy="-90" rx="83.6854" ry="18"/>
<text text-anchor="middle" x="644.243" y="-86.3" font-family="Times New Roman,serif" font-size="14.00">name (SimpleName)</text>
</g>
<!-- n28&#45;&gt;n29 -->
<g id="edge29" class="edge"><title>n28&#45;&gt;n29</title>
<path fill="none" stroke="black" d="M644.243,-143.697C644.243,-135.983 644.243,-126.712 644.243,-118.112"/>
<polygon fill="black" stroke="black" points="647.743,-118.104 644.243,-108.104 640.743,-118.104 647.743,-118.104"/>
</g>
<!-- n30 -->
<g id="node31" class="node"><title>n30</title>
<ellipse fill="none" stroke="black" cx="644.243" cy="-18" rx="55.4913" ry="18"/>
<text text-anchor="middle" x="644.243" y="-14.3" font-family="Times New Roman,serif" font-size="14.00">identifier=&#39;a&#39;</text>
</g>
<!-- n29&#45;&gt;n30 -->
<g id="edge30" class="edge"><title>n29&#45;&gt;n30</title>
<path fill="none" stroke="black" d="M644.243,-71.6966C644.243,-63.9827 644.243,-54.7125 644.243,-46.1124"/>
<polygon fill="black" stroke="black" points="647.743,-46.1043 644.243,-36.1043 640.743,-46.1044 647.743,-46.1043"/>
</g>
<!-- n32 -->
<g id="node33" class="node"><title>n32</title>
<ellipse fill="none" stroke="black" cx="831.243" cy="-90" rx="47.3916" ry="18"/>
<text text-anchor="middle" x="831.243" y="-86.3" font-family="Times New Roman,serif" font-size="14.00">value=&#39;10&#39;</text>
</g>
<!-- n31&#45;&gt;n32 -->
<g id="edge32" class="edge"><title>n31&#45;&gt;n32</title>
<path fill="none" stroke="black" d="M831.243,-143.697C831.243,-135.983 831.243,-126.712 831.243,-118.112"/>
<polygon fill="black" stroke="black" points="834.743,-118.104 831.243,-108.104 827.743,-118.104 834.743,-118.104"/>
</g>
<!-- n34 -->
<g id="node35" class="node"><title>n34</title>
<ellipse fill="none" stroke="black" cx="1135.24" cy="-234" rx="100.983" ry="18"/>
<text text-anchor="middle" x="1135.24" y="-230.3" font-family="Times New Roman,serif" font-size="14.00">expression (AssignExpr)</text>
</g>
<!-- n33&#45;&gt;n34 -->
<g id="edge34" class="edge"><title>n33&#45;&gt;n34</title>
<path fill="none" stroke="black" d="M1018.5,-288.765C1040.16,-278.79 1068.08,-265.928 1091.19,-255.286"/>
<polygon fill="black" stroke="black" points="1092.82,-258.389 1100.44,-251.026 1089.9,-252.03 1092.82,-258.389"/>
</g>
<!-- n35 -->
<g id="node36" class="node"><title>n35</title>
<ellipse fill="none" stroke="black" cx="1033.24" cy="-162" rx="83.6854" ry="18"/>
<text text-anchor="middle" x="1033.24" y="-158.3" font-family="Times New Roman,serif" font-size="14.00">operator=&#39;ASSIGN&#39;</text>
</g>
<!-- n34&#45;&gt;n35 -->
<g id="edge35" class="edge"><title>n34&#45;&gt;n35</title>
<path fill="none" stroke="black" d="M1111.07,-216.411C1097.48,-207.083 1080.33,-195.316 1065.6,-185.203"/>
<polygon fill="black" stroke="black" points="1067.47,-182.243 1057.24,-179.47 1063.51,-188.014 1067.47,-182.243"/>
</g>
<!-- n36 -->
<g id="node37" class="node"><title>n36</title>
<ellipse fill="none" stroke="black" cx="1236.24" cy="-162" rx="101.282" ry="18"/>
<text text-anchor="middle" x="1236.24" y="-158.3" font-family="Times New Roman,serif" font-size="14.00">target (FieldAccessExpr)</text>
</g>
<!-- n34&#45;&gt;n36 -->
<g id="edge36" class="edge"><title>n34&#45;&gt;n36</title>
<path fill="none" stroke="black" d="M1159.18,-216.411C1172.54,-207.151 1189.37,-195.487 1203.89,-185.423"/>
<polygon fill="black" stroke="black" points="1205.9,-188.286 1212.13,-179.713 1201.92,-182.532 1205.9,-188.286"/>
</g>
<!-- n40 -->
<g id="node41" class="node"><title>n40</title>
<ellipse fill="none" stroke="black" cx="1431.24" cy="-162" rx="76.0865" ry="18"/>
<text text-anchor="middle" x="1431.24" y="-158.3" font-family="Times New Roman,serif" font-size="14.00">value (NameExpr)</text>
</g>
<!-- n34&#45;&gt;n40 -->
<g id="edge40" class="edge"><title>n34&#45;&gt;n40</title>
<path fill="none" stroke="black" d="M1193.37,-219.254C1244.14,-207.247 1317.63,-189.869 1369.46,-177.612"/>
<polygon fill="black" stroke="black" points="1370.27,-181.016 1379.19,-175.309 1368.66,-174.204 1370.27,-181.016"/>
</g>
<!-- n37 -->
<g id="node38" class="node"><title>n37</title>
<ellipse fill="none" stroke="black" cx="1068.24" cy="-90" rx="83.6854" ry="18"/>
<text text-anchor="middle" x="1068.24" y="-86.3" font-family="Times New Roman,serif" font-size="14.00">name (SimpleName)</text>
</g>
<!-- n36&#45;&gt;n37 -->
<g id="edge37" class="edge"><title>n36&#45;&gt;n37</title>
<path fill="none" stroke="black" d="M1198.54,-145.291C1173.64,-134.915 1140.85,-121.251 1114.39,-110.227"/>
<polygon fill="black" stroke="black" points="1115.53,-106.911 1104.95,-106.296 1112.84,-113.373 1115.53,-106.911"/>
</g>
<!-- n39 -->
<g id="node40" class="node"><title>n39</title>
<ellipse fill="none" stroke="black" cx="1245.24" cy="-90" rx="74.9875" ry="18"/>
<text text-anchor="middle" x="1245.24" y="-86.3" font-family="Times New Roman,serif" font-size="14.00">scope (ThisExpr)</text>
</g>
<!-- n36&#45;&gt;n39 -->
<g id="edge39" class="edge"><title>n36&#45;&gt;n39</title>
<path fill="none" stroke="black" d="M1238.47,-143.697C1239.46,-135.983 1240.65,-126.712 1241.76,-118.112"/>
<polygon fill="black" stroke="black" points="1245.24,-118.469 1243.04,-108.104 1238.3,-117.576 1245.24,-118.469"/>
</g>
<!-- n38 -->
<g id="node39" class="node"><title>n38</title>
<ellipse fill="none" stroke="black" cx="1068.24" cy="-18" rx="55.4913" ry="18"/>
<text text-anchor="middle" x="1068.24" y="-14.3" font-family="Times New Roman,serif" font-size="14.00">identifier=&#39;a&#39;</text>
</g>
<!-- n37&#45;&gt;n38 -->
<g id="edge38" class="edge"><title>n37&#45;&gt;n38</title>
<path fill="none" stroke="black" d="M1068.24,-71.6966C1068.24,-63.9827 1068.24,-54.7125 1068.24,-46.1124"/>
<polygon fill="black" stroke="black" points="1071.74,-46.1043 1068.24,-36.1043 1064.74,-46.1044 1071.74,-46.1043"/>
</g>
<!-- n41 -->
<g id="node42" class="node"><title>n41</title>
<ellipse fill="none" stroke="black" cx="1431.24" cy="-90" rx="83.6854" ry="18"/>
<text text-anchor="middle" x="1431.24" y="-86.3" font-family="Times New Roman,serif" font-size="14.00">name (SimpleName)</text>
</g>
<!-- n40&#45;&gt;n41 -->
<g id="edge41" class="edge"><title>n40&#45;&gt;n41</title>
<path fill="none" stroke="black" d="M1431.24,-143.697C1431.24,-135.983 1431.24,-126.712 1431.24,-118.112"/>
<polygon fill="black" stroke="black" points="1434.74,-118.104 1431.24,-108.104 1427.74,-118.104 1434.74,-118.104"/>
</g>
<!-- n42 -->
<g id="node43" class="node"><title>n42</title>
<ellipse fill="none" stroke="black" cx="1431.24" cy="-18" rx="55.4913" ry="18"/>
<text text-anchor="middle" x="1431.24" y="-14.3" font-family="Times New Roman,serif" font-size="14.00">identifier=&#39;a&#39;</text>
</g>
<!-- n41&#45;&gt;n42 -->
<g id="edge42" class="edge"><title>n41&#45;&gt;n42</title>
<path fill="none" stroke="black" d="M1431.24,-71.6966C1431.24,-63.9827 1431.24,-54.7125 1431.24,-46.1124"/>
<polygon fill="black" stroke="black" points="1434.74,-46.1043 1431.24,-36.1043 1427.74,-46.1044 1434.74,-46.1043"/>
</g>
<!-- n44 -->
<g id="node45" class="node"><title>n44</title>
<ellipse fill="none" stroke="black" cx="971.243" cy="-378" rx="67.6881" ry="18"/>
<text text-anchor="middle" x="971.243" y="-374.3" font-family="Times New Roman,serif" font-size="14.00">identifier=&#39;Test&#39;</text>
</g>
<!-- n43&#45;&gt;n44 -->
<g id="edge44" class="edge"><title>n43&#45;&gt;n44</title>
<path fill="none" stroke="black" d="M971.243,-431.697C971.243,-423.983 971.243,-414.712 971.243,-406.112"/>
<polygon fill="black" stroke="black" points="974.743,-406.104 971.243,-396.104 967.743,-406.104 974.743,-406.104"/>
</g>
<!-- n46 -->
<g id="node47" class="node"><title>n46</title>
<ellipse fill="none" stroke="black" cx="1169.24" cy="-378" rx="80.6858" ry="18"/>
<text text-anchor="middle" x="1169.24" y="-374.3" font-family="Times New Roman,serif" font-size="14.00">modifier (Modifier)</text>
</g>
<!-- n45&#45;&gt;n46 -->
<g id="edge46" class="edge"><title>n45&#45;&gt;n46</title>
<path fill="none" stroke="black" d="M1130.33,-432.411C1136.46,-423.992 1144.05,-413.585 1150.88,-404.201"/>
<polygon fill="black" stroke="black" points="1153.83,-406.1 1156.89,-395.956 1148.17,-401.978 1153.83,-406.1"/>
</g>
<!-- n47 -->
<g id="node48" class="node"><title>n47</title>
<ellipse fill="none" stroke="black" cx="1195.24" cy="-306" rx="83.6854" ry="18"/>
<text text-anchor="middle" x="1195.24" y="-302.3" font-family="Times New Roman,serif" font-size="14.00">keyword=&#39;PUBLIC&#39;</text>
</g>
<!-- n46&#45;&gt;n47 -->
<g id="edge47" class="edge"><title>n46&#45;&gt;n47</title>
<path fill="none" stroke="black" d="M1175.54,-360.055C1178.46,-352.176 1182.01,-342.617 1185.29,-333.794"/>
<polygon fill="black" stroke="black" points="1188.63,-334.868 1188.83,-324.275 1182.06,-332.431 1188.63,-334.868"/>
</g>
<!-- n49 -->
<g id="node50" class="node"><title>n49</title>
<ellipse fill="none" stroke="black" cx="1396.24" cy="-378" rx="90.9839" ry="18"/>
<text text-anchor="middle" x="1396.24" y="-374.3" font-family="Times New Roman,serif" font-size="14.00">parameter (Parameter)</text>
</g>
<!-- n48&#45;&gt;n49 -->
<g id="edge49" class="edge"><title>n48&#45;&gt;n49</title>
<path fill="none" stroke="black" d="M1262.28,-435.834C1287.1,-425.301 1322.28,-410.377 1350.36,-398.465"/>
<polygon fill="black" stroke="black" points="1351.75,-401.679 1359.59,-394.552 1349.01,-395.235 1351.75,-401.679"/>
</g>
<!-- n50 -->
<g id="node51" class="node"><title>n50</title>
<ellipse fill="none" stroke="black" cx="1370.24" cy="-306" rx="73.387" ry="18"/>
<text text-anchor="middle" x="1370.24" y="-302.3" font-family="Times New Roman,serif" font-size="14.00">isVarArgs=&#39;false&#39;</text>
</g>
<!-- n49&#45;&gt;n50 -->
<g id="edge50" class="edge"><title>n49&#45;&gt;n50</title>
<path fill="none" stroke="black" d="M1389.82,-359.697C1386.89,-351.813 1383.36,-342.304 1380.1,-333.546"/>
<polygon fill="black" stroke="black" points="1383.36,-332.26 1376.6,-324.104 1376.8,-334.697 1383.36,-332.26"/>
</g>
<!-- n51 -->
<g id="node52" class="node"><title>n51</title>
<ellipse fill="none" stroke="black" cx="1545.24" cy="-306" rx="83.6854" ry="18"/>
<text text-anchor="middle" x="1545.24" y="-302.3" font-family="Times New Roman,serif" font-size="14.00">name (SimpleName)</text>
</g>
<!-- n49&#45;&gt;n51 -->
<g id="edge51" class="edge"><title>n49&#45;&gt;n51</title>
<path fill="none" stroke="black" d="M1430.05,-361.116C1451.64,-350.976 1479.79,-337.749 1502.86,-326.91"/>
<polygon fill="black" stroke="black" points="1504.52,-330 1512.08,-322.58 1501.54,-323.664 1504.52,-330"/>
</g>
<!-- n53 -->
<g id="node54" class="node"><title>n53</title>
<ellipse fill="none" stroke="black" cx="1732.24" cy="-306" rx="85.2851" ry="18"/>
<text text-anchor="middle" x="1732.24" y="-302.3" font-family="Times New Roman,serif" font-size="14.00">type (PrimitiveType)</text>
</g>
<!-- n49&#45;&gt;n53 -->
<g id="edge53" class="edge"><title>n49&#45;&gt;n53</title>
<path fill="none" stroke="black" d="M1456.7,-364.405C1515.05,-352.249 1603.25,-333.874 1664.06,-321.204"/>
<polygon fill="black" stroke="black" points="1664.88,-324.609 1673.96,-319.143 1663.45,-317.756 1664.88,-324.609"/>
</g>
<!-- n52 -->
<g id="node53" class="node"><title>n52</title>
<ellipse fill="none" stroke="black" cx="1545.24" cy="-234" rx="55.4913" ry="18"/>
<text text-anchor="middle" x="1545.24" y="-230.3" font-family="Times New Roman,serif" font-size="14.00">identifier=&#39;a&#39;</text>
</g>
<!-- n51&#45;&gt;n52 -->
<g id="edge52" class="edge"><title>n51&#45;&gt;n52</title>
<path fill="none" stroke="black" d="M1545.24,-287.697C1545.24,-279.983 1545.24,-270.712 1545.24,-262.112"/>
<polygon fill="black" stroke="black" points="1548.74,-262.104 1545.24,-252.104 1541.74,-262.104 1548.74,-262.104"/>
</g>
<!-- n54 -->
<g id="node55" class="node"><title>n54</title>
<ellipse fill="none" stroke="black" cx="1732.24" cy="-234" rx="50.8918" ry="18"/>
<text text-anchor="middle" x="1732.24" y="-230.3" font-family="Times New Roman,serif" font-size="14.00">type=&#39;INT&#39;</text>
</g>
<!-- n53&#45;&gt;n54 -->
<g id="edge54" class="edge"><title>n53&#45;&gt;n54</title>
<path fill="none" stroke="black" d="M1732.24,-287.697C1732.24,-279.983 1732.24,-270.712 1732.24,-262.112"/>
<polygon fill="black" stroke="black" points="1735.74,-262.104 1732.24,-252.104 1728.74,-262.104 1735.74,-262.104"/>
</g>
<!-- n56 -->
<g id="node57" class="node"><title>n56</title>
<ellipse fill="none" stroke="black" cx="1293.24" cy="-522" rx="80.6858" ry="18"/>
<text text-anchor="middle" x="1293.24" y="-518.3" font-family="Times New Roman,serif" font-size="14.00">modifier (Modifier)</text>
</g>
<!-- n55&#45;&gt;n56 -->
<g id="edge56" class="edge"><title>n55&#45;&gt;n56</title>
<path fill="none" stroke="black" d="M1042.6,-583.92C1090.27,-572.335 1173.4,-552.127 1230.78,-538.182"/>
<polygon fill="black" stroke="black" points="1231.93,-541.503 1240.82,-535.741 1230.28,-534.701 1231.93,-541.503"/>
</g>
<!-- n57 -->
<g id="node58" class="node"><title>n57</title>
<ellipse fill="none" stroke="black" cx="1383.24" cy="-450" rx="83.6854" ry="18"/>
<text text-anchor="middle" x="1383.24" y="-446.3" font-family="Times New Roman,serif" font-size="14.00">keyword=&#39;PUBLIC&#39;</text>
</g>
<!-- n56&#45;&gt;n57 -->
<g id="edge57" class="edge"><title>n56&#45;&gt;n57</title>
<path fill="none" stroke="black" d="M1314.57,-504.411C1326.34,-495.257 1341.13,-483.755 1353.97,-473.772"/>
<polygon fill="black" stroke="black" points="1356.32,-476.372 1362.07,-467.47 1352.02,-470.847 1356.32,-476.372"/>
</g>
</g>
</svg>
